<mxfile host="app.diagrams.net" agent="Mozilla/5.0 (Windows NT 10.0; Win64; x64) AppleWebKit/537.36 (KHTML, like Gecko) Chrome/135.0.0.0 Safari/537.36" version="26.2.12">
  <diagram name="第 1 页" id="KvyMxOhW3KtLjB043KVP">
    <mxGraphModel dx="1183" dy="626" grid="1" gridSize="10" guides="1" tooltips="1" connect="1" arrows="1" fold="1" page="1" pageScale="1" pageWidth="827" pageHeight="1169" math="0" shadow="0">
      <root>
        <mxCell id="0" />
        <mxCell id="1" parent="0" />
        <mxCell id="L8_3Eq7ttX2pcFZH22y1-33" value="" style="rounded=0;whiteSpace=wrap;html=1;" vertex="1" parent="1">
          <mxGeometry x="20" y="370" width="860" height="440" as="geometry" />
        </mxCell>
        <mxCell id="L8_3Eq7ttX2pcFZH22y1-1" value="" style="ellipse;whiteSpace=wrap;html=1;aspect=fixed;" vertex="1" parent="1">
          <mxGeometry x="140" y="380" width="160" height="160" as="geometry" />
        </mxCell>
        <mxCell id="L8_3Eq7ttX2pcFZH22y1-2" value="" style="ellipse;whiteSpace=wrap;html=1;aspect=fixed;" vertex="1" parent="1">
          <mxGeometry x="195" y="435" width="50" height="50" as="geometry" />
        </mxCell>
        <mxCell id="L8_3Eq7ttX2pcFZH22y1-4" value="&lt;font style=&quot;font-size: 19px;&quot;&gt;集盛&lt;/font&gt;" style="text;html=1;align=center;verticalAlign=middle;whiteSpace=wrap;rounded=0;horizontal=1;textDirection=vertical-lr;" vertex="1" parent="1">
          <mxGeometry x="160" y="435" width="20" height="50" as="geometry" />
        </mxCell>
        <mxCell id="L8_3Eq7ttX2pcFZH22y1-5" value="" style="endArrow=none;html=1;rounded=0;entryX=0;entryY=0.5;entryDx=0;entryDy=0;" edge="1" parent="1" target="L8_3Eq7ttX2pcFZH22y1-1">
          <mxGeometry width="50" height="50" relative="1" as="geometry">
            <mxPoint x="140" y="770" as="sourcePoint" />
            <mxPoint x="370" y="540" as="targetPoint" />
          </mxGeometry>
        </mxCell>
        <mxCell id="L8_3Eq7ttX2pcFZH22y1-6" value="" style="endArrow=none;html=1;rounded=0;entryX=0;entryY=0.5;entryDx=0;entryDy=0;" edge="1" parent="1">
          <mxGeometry width="50" height="50" relative="1" as="geometry">
            <mxPoint x="300" y="770" as="sourcePoint" />
            <mxPoint x="300" y="460" as="targetPoint" />
          </mxGeometry>
        </mxCell>
        <mxCell id="L8_3Eq7ttX2pcFZH22y1-7" value="" style="ellipse;whiteSpace=wrap;html=1;aspect=fixed;" vertex="1" parent="1">
          <mxGeometry x="195" y="630" width="50" height="50" as="geometry" />
        </mxCell>
        <mxCell id="L8_3Eq7ttX2pcFZH22y1-8" value="" style="endArrow=none;html=1;rounded=0;" edge="1" parent="1">
          <mxGeometry width="50" height="50" relative="1" as="geometry">
            <mxPoint x="245" y="660" as="sourcePoint" />
            <mxPoint x="300" y="600" as="targetPoint" />
          </mxGeometry>
        </mxCell>
        <mxCell id="L8_3Eq7ttX2pcFZH22y1-9" value="" style="endArrow=none;html=1;rounded=0;exitX=0;exitY=0.5;exitDx=0;exitDy=0;" edge="1" parent="1" source="L8_3Eq7ttX2pcFZH22y1-7">
          <mxGeometry width="50" height="50" relative="1" as="geometry">
            <mxPoint x="255" y="670" as="sourcePoint" />
            <mxPoint x="140" y="600" as="targetPoint" />
          </mxGeometry>
        </mxCell>
        <mxCell id="L8_3Eq7ttX2pcFZH22y1-10" value="" style="ellipse;whiteSpace=wrap;html=1;aspect=fixed;" vertex="1" parent="1">
          <mxGeometry x="205" y="700" width="30" height="30" as="geometry" />
        </mxCell>
        <mxCell id="L8_3Eq7ttX2pcFZH22y1-12" value="" style="shape=link;html=1;rounded=0;entryX=0.5;entryY=1;entryDx=0;entryDy=0;" edge="1" parent="1" target="L8_3Eq7ttX2pcFZH22y1-11">
          <mxGeometry width="100" relative="1" as="geometry">
            <mxPoint x="30" y="720" as="sourcePoint" />
            <mxPoint x="220" y="780" as="targetPoint" />
          </mxGeometry>
        </mxCell>
        <mxCell id="L8_3Eq7ttX2pcFZH22y1-15" style="rounded=0;orthogonalLoop=1;jettySize=auto;html=1;exitX=1;exitY=0.5;exitDx=0;exitDy=0;entryX=1;entryY=0.5;entryDx=0;entryDy=0;strokeColor=default;endArrow=none;startFill=0;" edge="1" parent="1" source="L8_3Eq7ttX2pcFZH22y1-11" target="L8_3Eq7ttX2pcFZH22y1-10">
          <mxGeometry relative="1" as="geometry" />
        </mxCell>
        <mxCell id="L8_3Eq7ttX2pcFZH22y1-16" style="rounded=0;orthogonalLoop=1;jettySize=auto;html=1;exitX=0;exitY=0.5;exitDx=0;exitDy=0;entryX=0;entryY=0.5;entryDx=0;entryDy=0;endArrow=none;startFill=0;" edge="1" parent="1" source="L8_3Eq7ttX2pcFZH22y1-11" target="L8_3Eq7ttX2pcFZH22y1-10">
          <mxGeometry relative="1" as="geometry" />
        </mxCell>
        <mxCell id="L8_3Eq7ttX2pcFZH22y1-11" value="" style="ellipse;whiteSpace=wrap;html=1;aspect=fixed;" vertex="1" parent="1">
          <mxGeometry x="210" y="750" width="20" height="20" as="geometry" />
        </mxCell>
        <mxCell id="L8_3Eq7ttX2pcFZH22y1-13" value="螺旋機" style="text;html=1;align=center;verticalAlign=middle;whiteSpace=wrap;rounded=0;" vertex="1" parent="1">
          <mxGeometry x="60" y="745" width="60" height="30" as="geometry" />
        </mxCell>
        <mxCell id="L8_3Eq7ttX2pcFZH22y1-17" value="&lt;font style=&quot;font-size: 19px;&quot;&gt;計量桶&lt;/font&gt;" style="text;html=1;align=center;verticalAlign=middle;whiteSpace=wrap;rounded=0;horizontal=1;textDirection=vertical-lr;" vertex="1" parent="1">
          <mxGeometry x="245" y="710" width="20" height="70" as="geometry" />
        </mxCell>
        <mxCell id="L8_3Eq7ttX2pcFZH22y1-18" value="" style="ellipse;whiteSpace=wrap;html=1;aspect=fixed;" vertex="1" parent="1">
          <mxGeometry x="440" y="435" width="72.14" height="72.14" as="geometry" />
        </mxCell>
        <mxCell id="L8_3Eq7ttX2pcFZH22y1-21" value="" style="ellipse;whiteSpace=wrap;html=1;aspect=fixed;" vertex="1" parent="1">
          <mxGeometry x="450.35999999999996" y="545" width="51.43" height="51.43" as="geometry" />
        </mxCell>
        <mxCell id="L8_3Eq7ttX2pcFZH22y1-19" style="rounded=0;orthogonalLoop=1;jettySize=auto;html=1;exitX=1;exitY=0.5;exitDx=0;exitDy=0;entryX=1;entryY=0.5;entryDx=0;entryDy=0;strokeColor=default;endArrow=none;startFill=0;" edge="1" parent="1" source="L8_3Eq7ttX2pcFZH22y1-21" target="L8_3Eq7ttX2pcFZH22y1-18">
          <mxGeometry relative="1" as="geometry" />
        </mxCell>
        <mxCell id="L8_3Eq7ttX2pcFZH22y1-20" style="rounded=0;orthogonalLoop=1;jettySize=auto;html=1;exitX=0;exitY=0.5;exitDx=0;exitDy=0;entryX=0;entryY=0.5;entryDx=0;entryDy=0;endArrow=none;startFill=0;" edge="1" parent="1" source="L8_3Eq7ttX2pcFZH22y1-21" target="L8_3Eq7ttX2pcFZH22y1-18">
          <mxGeometry relative="1" as="geometry" />
        </mxCell>
        <mxCell id="L8_3Eq7ttX2pcFZH22y1-23" value="" style="shape=link;html=1;rounded=0;strokeColor=#FF9933;strokeWidth=2;" edge="1" parent="1">
          <mxGeometry width="100" relative="1" as="geometry">
            <mxPoint x="420" y="700" as="sourcePoint" />
            <mxPoint x="280" y="490" as="targetPoint" />
            <Array as="points">
              <mxPoint x="280" y="700" />
            </Array>
          </mxGeometry>
        </mxCell>
        <mxCell id="L8_3Eq7ttX2pcFZH22y1-25" value="" style="shape=link;html=1;rounded=0;strokeColor=#FF9933;strokeWidth=2;" edge="1" parent="1">
          <mxGeometry width="100" relative="1" as="geometry">
            <mxPoint x="470" y="640" as="sourcePoint" />
            <mxPoint x="265" y="450" as="targetPoint" />
            <Array as="points">
              <mxPoint x="335" y="640" />
              <mxPoint x="335" y="450" />
            </Array>
          </mxGeometry>
        </mxCell>
        <mxCell id="L8_3Eq7ttX2pcFZH22y1-27" value="" style="ellipse;whiteSpace=wrap;html=1;aspect=fixed;" vertex="1" parent="1">
          <mxGeometry x="458.07" y="620" width="36" height="36" as="geometry" />
        </mxCell>
        <mxCell id="L8_3Eq7ttX2pcFZH22y1-28" value="&lt;font style=&quot;font-size: 19px;&quot;&gt;氣動閥&lt;/font&gt;" style="text;html=1;align=center;verticalAlign=middle;whiteSpace=wrap;rounded=0;horizontal=1;textDirection=vertical-lr;" vertex="1" parent="1">
          <mxGeometry x="520" y="603" width="20" height="70" as="geometry" />
        </mxCell>
        <mxCell id="L8_3Eq7ttX2pcFZH22y1-29" value="&lt;span style=&quot;font-size: 19px;&quot;&gt;進料桶&lt;/span&gt;" style="text;html=1;align=center;verticalAlign=middle;whiteSpace=wrap;rounded=0;horizontal=1;" vertex="1" parent="1">
          <mxGeometry x="530" y="450" width="20" height="70" as="geometry" />
        </mxCell>
        <mxCell id="L8_3Eq7ttX2pcFZH22y1-30" value="&lt;span style=&quot;font-size: 19px;&quot;&gt;水泥桶(中古)250頓&lt;/span&gt;&lt;div&gt;&lt;span style=&quot;font-size: 19px;&quot;&gt;計量桶 螺旋機&lt;/span&gt;&lt;/div&gt;&lt;div&gt;&lt;span style=&quot;font-size: 19px;&quot;&gt;含安裝 一式&lt;/span&gt;&lt;/div&gt;&lt;div&gt;&lt;span style=&quot;font-size: 19px;&quot;&gt;&lt;br&gt;&lt;/span&gt;&lt;/div&gt;&lt;div&gt;&lt;span style=&quot;font-size: 19px;&quot;&gt;進料桶&lt;/span&gt;&lt;/div&gt;&lt;div&gt;&lt;span style=&quot;font-size: 19px;&quot;&gt;氣動閥&lt;/span&gt;&lt;/div&gt;&lt;div&gt;&lt;span style=&quot;font-size: 19px;&quot;&gt;含安裝一式&lt;/span&gt;&lt;/div&gt;" style="text;html=1;align=left;verticalAlign=middle;whiteSpace=wrap;rounded=0;horizontal=1;" vertex="1" parent="1">
          <mxGeometry x="610" y="450" width="260" height="195" as="geometry" />
        </mxCell>
        <mxCell id="L8_3Eq7ttX2pcFZH22y1-31" value="&lt;span style=&quot;font-size: 19px;&quot;&gt;備註:&lt;/span&gt;&lt;div&gt;&lt;span style=&quot;font-size: 19px;&quot;&gt;&lt;span style=&quot;white-space: pre;&quot;&gt;&#x9;&lt;/span&gt;不含土木、電器設備&lt;span style=&quot;white-space: pre;&quot;&gt;&#x9;&lt;/span&gt;&lt;/span&gt;&lt;/div&gt;" style="text;html=1;align=left;verticalAlign=middle;whiteSpace=wrap;rounded=0;horizontal=1;" vertex="1" parent="1">
          <mxGeometry x="580" y="700" width="260" height="65" as="geometry" />
        </mxCell>
      </root>
    </mxGraphModel>
  </diagram>
</mxfile>
